<?xml version="1.0" encoding="UTF-8" standalone="no"?>
<!-- Created with Inkscape (http://www.inkscape.org/) -->

<svg
   xmlns:dc="http://purl.org/dc/elements/1.1/"
   xmlns:cc="http://creativecommons.org/ns#"
   xmlns:rdf="http://www.w3.org/1999/02/22-rdf-syntax-ns#"
   xmlns:svg="http://www.w3.org/2000/svg"
   xmlns="http://www.w3.org/2000/svg"
   xmlns:xlink="http://www.w3.org/1999/xlink"
   xmlns:sodipodi="http://sodipodi.sourceforge.net/DTD/sodipodi-0.dtd"
   xmlns:inkscape="http://www.inkscape.org/namespaces/inkscape"
   width="328.65643"
   height="599.80927"
   id="svg2"
   version="1.1"
   inkscape:version="0.48.2 r9819"
   sodipodi:docname="gobernador.svg"
   inkscape:export-filename="/media/Iomega_HDD/tecnoparador/reciclaje/inventos/gobernador.png"
   inkscape:export-xdpi="72"
   inkscape:export-ydpi="72">
  <defs
     id="defs4">
    <linearGradient
       id="linearGradient4285">
      <stop
         style="stop-color:#85806f;stop-opacity:1"
         offset="0"
         id="stop4287" />
      <stop
         style="stop-color:#000000;stop-opacity:0;"
         offset="1"
         id="stop4289" />
    </linearGradient>
    <linearGradient
       id="linearGradient4110">
      <stop
         style="stop-color:#655a49;stop-opacity:1"
         offset="0"
         id="stop4112" />
      <stop
         id="stop4122"
         offset="0.21624206"
         style="stop-color:#62594d;stop-opacity:1" />
      <stop
         id="stop4120"
         offset="0.82255125"
         style="stop-color:#514a46;stop-opacity:1" />
      <stop
         id="stop4118"
         offset="0.83839697"
         style="stop-color:#7d6c5e;stop-opacity:1" />
      <stop
         style="stop-color:#6e5e4e;stop-opacity:1"
         offset="1"
         id="stop4114" />
    </linearGradient>
    <linearGradient
       inkscape:collect="always"
       id="linearGradient4043">
      <stop
         style="stop-color:#746d5e;stop-opacity:1"
         offset="0"
         id="stop4045" />
      <stop
         style="stop-color:#ecece5;stop-opacity:1"
         offset="1"
         id="stop4047" />
    </linearGradient>
    <linearGradient
       inkscape:collect="always"
       id="linearGradient3947">
      <stop
         style="stop-color:#6d6458;stop-opacity:1"
         offset="0"
         id="stop3949" />
      <stop
         style="stop-color:#686978;stop-opacity:1"
         offset="1"
         id="stop3951" />
    </linearGradient>
    <linearGradient
       inkscape:collect="always"
       id="linearGradient3931">
      <stop
         style="stop-color:#9d946b;stop-opacity:1"
         offset="0"
         id="stop3933" />
      <stop
         style="stop-color:#8d7761;stop-opacity:1"
         offset="1"
         id="stop3935" />
    </linearGradient>
    <linearGradient
       inkscape:collect="always"
       id="linearGradient3878">
      <stop
         style="stop-color:#55453a;stop-opacity:1"
         offset="0"
         id="stop3880" />
      <stop
         style="stop-color:#997d6b;stop-opacity:1"
         offset="1"
         id="stop3882" />
    </linearGradient>
    <linearGradient
       inkscape:collect="always"
       id="linearGradient3708">
      <stop
         style="stop-color:#fefeff;stop-opacity:1"
         offset="0"
         id="stop3710" />
      <stop
         style="stop-color:#c5b9a5;stop-opacity:1"
         offset="1"
         id="stop3712" />
    </linearGradient>
    <inkscape:perspective
       sodipodi:type="inkscape:persp3d"
       inkscape:vp_x="0 : 526.18109 : 1"
       inkscape:vp_y="0 : 1000 : 0"
       inkscape:vp_z="744.09448 : 526.18109 : 1"
       inkscape:persp3d-origin="372.04724 : 350.78739 : 1"
       id="perspective126" />
    <linearGradient
       id="linearGradient4658">
      <stop
         style="stop-color:#775e4b;stop-opacity:1"
         offset="0"
         id="stop4660" />
      <stop
         id="stop4670"
         offset="0.28826526"
         style="stop-color:#a08474;stop-opacity:1" />
      <stop
         id="stop4668"
         offset="0.4948979"
         style="stop-color:#eee6cf;stop-opacity:1" />
      <stop
         id="stop4666"
         offset="0.72448975"
         style="stop-color:#826f60;stop-opacity:1" />
      <stop
         style="stop-color:#af8a75;stop-opacity:1"
         offset="1"
         id="stop4662" />
    </linearGradient>
    <linearGradient
       id="linearGradient4038">
      <stop
         style="stop-color:#7b7f7f;stop-opacity:1"
         offset="0"
         id="stop4040" />
      <stop
         id="stop4046"
         offset="0.08371346"
         style="stop-color:#494c4d;stop-opacity:1" />
      <stop
         style="stop-color:#575e5f;stop-opacity:1"
         offset="1"
         id="stop4042" />
    </linearGradient>
    <linearGradient
       id="linearGradient4022">
      <stop
         id="stop4024"
         offset="0"
         style="stop-color:#2b3335;stop-opacity:1" />
      <stop
         style="stop-color:#575f6a;stop-opacity:1"
         offset="0.36313307"
         id="stop4026" />
      <stop
         style="stop-color:#e8ebe4;stop-opacity:1"
         offset="0.50675672"
         id="stop4028" />
      <stop
         style="stop-color:#4a4f52;stop-opacity:1"
         offset="0.60663182"
         id="stop4030" />
      <stop
         id="stop4032"
         offset="1"
         style="stop-color:#47413d;stop-opacity:1" />
    </linearGradient>
    <linearGradient
       id="linearGradient3998">
      <stop
         style="stop-color:#2b3335;stop-opacity:1"
         offset="0"
         id="stop4000" />
      <stop
         id="stop4010"
         offset="0.35472971"
         style="stop-color:#575f6a;stop-opacity:1" />
      <stop
         id="stop4008"
         offset="0.50675672"
         style="stop-color:#e8ebe4;stop-opacity:1" />
      <stop
         id="stop4006"
         offset="0.64864862"
         style="stop-color:#4a4f52;stop-opacity:1" />
      <stop
         style="stop-color:#47413d;stop-opacity:1"
         offset="1"
         id="stop4002" />
    </linearGradient>
    <linearGradient
       id="linearGradient3986">
      <stop
         style="stop-color:#4a5456;stop-opacity:1;"
         offset="0"
         id="stop3988" />
      <stop
         id="stop3994"
         offset="0.5"
         style="stop-color:#4a5456;stop-opacity:0.49803922;" />
      <stop
         style="stop-color:#4a5456;stop-opacity:0;"
         offset="1"
         id="stop3990" />
    </linearGradient>
    <linearGradient
       id="linearGradient3920">
      <stop
         style="stop-color:#2a2e34;stop-opacity:1"
         offset="0"
         id="stop3922" />
      <stop
         id="stop3928"
         offset="0.5"
         style="stop-color:#626872;stop-opacity:1" />
      <stop
         style="stop-color:#2a2e34;stop-opacity:1"
         offset="1"
         id="stop3924" />
    </linearGradient>
    <linearGradient
       inkscape:collect="always"
       id="linearGradient3816">
      <stop
         style="stop-color:#e5ebeb;stop-opacity:1"
         offset="0"
         id="stop3818" />
      <stop
         style="stop-color:#859096;stop-opacity:1"
         offset="1"
         id="stop3820" />
    </linearGradient>
    <linearGradient
       id="linearGradient3804">
      <stop
         style="stop-color:#dee5e4;stop-opacity:1"
         offset="0"
         id="stop3806" />
      <stop
         id="stop3812"
         offset="0.27941176"
         style="stop-color:#404848;stop-opacity:1" />
      <stop
         style="stop-color:#2c2c2d;stop-opacity:1"
         offset="1"
         id="stop3808" />
    </linearGradient>
    <filter
       inkscape:collect="always"
       id="filter3836"
       color-interpolation-filters="sRGB">
      <feGaussianBlur
         inkscape:collect="always"
         stdDeviation="0.56424051"
         id="feGaussianBlur3838" />
    </filter>
    <filter
       inkscape:collect="always"
       id="filter3902"
       x="-0.10296178"
       width="1.2059236"
       y="-0.17160296"
       height="1.3432059"
       color-interpolation-filters="sRGB">
      <feGaussianBlur
         inkscape:collect="always"
         stdDeviation="0.7660847"
         id="feGaussianBlur3904" />
    </filter>
    <filter
       color-interpolation-filters="sRGB"
       inkscape:collect="always"
       id="filter3902-3"
       x="-0.10296178"
       width="1.2059236"
       y="-0.17160296"
       height="1.3432059">
      <feGaussianBlur
         inkscape:collect="always"
         stdDeviation="0.7660847"
         id="feGaussianBlur3904-6" />
    </filter>
    <linearGradient
       id="linearGradient3816-4">
      <stop
         style="stop-color:#e5ebeb;stop-opacity:1"
         offset="0"
         id="stop3818-6" />
      <stop
         style="stop-color:#e5ebeb;stop-opacity:0;"
         offset="1"
         id="stop3820-0" />
    </linearGradient>
    <filter
       color-interpolation-filters="sRGB"
       inkscape:collect="always"
       id="filter3836-5">
      <feGaussianBlur
         inkscape:collect="always"
         stdDeviation="0.56424051"
         id="feGaussianBlur3838-6" />
    </filter>
    <linearGradient
       inkscape:collect="always"
       xlink:href="#linearGradient4038-6"
       id="linearGradient4044-1"
       x1="-365.71429"
       y1="558.79077"
       x2="-182.11823"
       y2="558.79077"
       gradientUnits="userSpaceOnUse"
       gradientTransform="translate(75,508.57143)" />
    <linearGradient
       id="linearGradient4038-6">
      <stop
         style="stop-color:#7b7f7f;stop-opacity:1"
         offset="0"
         id="stop4040-5" />
      <stop
         id="stop4046-4"
         offset="0.08371346"
         style="stop-color:#494c4d;stop-opacity:1" />
      <stop
         style="stop-color:#575e5f;stop-opacity:1"
         offset="1"
         id="stop4042-6" />
    </linearGradient>
    <filter
       inkscape:collect="always"
       id="filter4255"
       x="-0.26441374"
       width="1.5288275"
       y="-0.067858413"
       height="1.1357168"
       color-interpolation-filters="sRGB">
      <feGaussianBlur
         inkscape:collect="always"
         stdDeviation="2.2821428"
         id="feGaussianBlur4257" />
    </filter>
    <linearGradient
       inkscape:collect="always"
       xlink:href="#linearGradient3920"
       id="linearGradient4271"
       gradientUnits="userSpaceOnUse"
       x1="18.038757"
       y1="693.54553"
       x2="23.12628"
       y2="695.0188" />
    <radialGradient
       inkscape:collect="always"
       xlink:href="#linearGradient3816"
       id="radialGradient4273"
       gradientUnits="userSpaceOnUse"
       gradientTransform="matrix(1,0,0,1.025641,0,-16.397547)"
       cx="-445.35715"
       cy="639.50507"
       fx="-445.35715"
       fy="639.50507"
       r="13.928572" />
    <filter
       inkscape:collect="always"
       id="filter4332"
       color-interpolation-filters="sRGB">
      <feGaussianBlur
         inkscape:collect="always"
         stdDeviation="0.2284572"
         id="feGaussianBlur4334" />
    </filter>
    <filter
       inkscape:collect="always"
       id="filter4430"
       x="-0.30635345"
       width="1.6127069"
       y="-0.11573326"
       height="1.2314665"
       color-interpolation-filters="sRGB">
      <feGaussianBlur
         inkscape:collect="always"
         stdDeviation="0.2740038"
         id="feGaussianBlur4432" />
    </filter>
    <linearGradient
       inkscape:collect="always"
       xlink:href="#linearGradient3998"
       id="linearGradient4508"
       gradientUnits="userSpaceOnUse"
       x1="-227.85715"
       y1="705.86188"
       x2="-201.42857"
       y2="705.86188" />
    <linearGradient
       inkscape:collect="always"
       xlink:href="#linearGradient4022"
       id="linearGradient4510"
       gradientUnits="userSpaceOnUse"
       x1="-235"
       y1="651.29077"
       x2="-192.5"
       y2="651.29077" />
    <linearGradient
       inkscape:collect="always"
       xlink:href="#linearGradient4038"
       id="linearGradient4512"
       gradientUnits="userSpaceOnUse"
       gradientTransform="translate(382.85715,198.57143)"
       x1="-365.71429"
       y1="558.79077"
       x2="-182.11823"
       y2="558.79077" />
    <radialGradient
       inkscape:collect="always"
       xlink:href="#linearGradient3816-4"
       id="radialGradient4514"
       gradientUnits="userSpaceOnUse"
       gradientTransform="matrix(1,0,0,1.025641,0,-16.397547)"
       cx="-445.35715"
       cy="639.50507"
       fx="-445.35715"
       fy="639.50507"
       r="13.928572" />
    <linearGradient
       inkscape:collect="always"
       xlink:href="#linearGradient3920"
       id="linearGradient4516"
       gradientUnits="userSpaceOnUse"
       gradientTransform="translate(-95.000002,118.57143)"
       x1="211.72023"
       y1="711.74585"
       x2="234.57736"
       y2="708.17444" />
    <linearGradient
       inkscape:collect="always"
       xlink:href="#linearGradient4022"
       id="linearGradient4518"
       gradientUnits="userSpaceOnUse"
       gradientTransform="translate(-5.0507628,7.5761442)"
       x1="-741.90997"
       y1="461.64789"
       x2="-721.2774"
       y2="467.00504" />
    <linearGradient
       inkscape:collect="always"
       xlink:href="#linearGradient3920"
       id="linearGradient4596"
       gradientUnits="userSpaceOnUse"
       x1="18.038757"
       y1="693.54553"
       x2="23.12628"
       y2="695.0188" />
    <radialGradient
       inkscape:collect="always"
       xlink:href="#linearGradient3816"
       id="radialGradient4598"
       gradientUnits="userSpaceOnUse"
       gradientTransform="matrix(1,0,0,1.025641,0,-16.397547)"
       cx="-445.35715"
       cy="639.50507"
       fx="-445.35715"
       fy="639.50507"
       r="13.928572" />
    <linearGradient
       inkscape:collect="always"
       xlink:href="#linearGradient3920"
       id="linearGradient4606"
       gradientUnits="userSpaceOnUse"
       x1="18.038757"
       y1="693.54553"
       x2="23.12628"
       y2="695.0188"
       gradientTransform="translate(32.142863,-8.571426)" />
    <radialGradient
       inkscape:collect="always"
       xlink:href="#linearGradient3816-4"
       id="radialGradient4608"
       gradientUnits="userSpaceOnUse"
       gradientTransform="matrix(1,0,0,1.025641,0,-16.397547)"
       cx="-445.35715"
       cy="639.50507"
       fx="-445.35715"
       fy="639.50507"
       r="13.928572" />
    <linearGradient
       inkscape:collect="always"
       xlink:href="#linearGradient3998"
       id="linearGradient4610"
       gradientUnits="userSpaceOnUse"
       x1="-227.85715"
       y1="705.86188"
       x2="-201.42857"
       y2="705.86188" />
    <linearGradient
       inkscape:collect="always"
       xlink:href="#linearGradient4022"
       id="linearGradient4612"
       gradientUnits="userSpaceOnUse"
       x1="-235"
       y1="651.29077"
       x2="-192.5"
       y2="651.29077" />
    <linearGradient
       inkscape:collect="always"
       xlink:href="#linearGradient4038"
       id="linearGradient4614"
       gradientUnits="userSpaceOnUse"
       gradientTransform="translate(382.85715,198.57143)"
       x1="-365.71429"
       y1="558.79077"
       x2="-182.11823"
       y2="558.79077" />
    <radialGradient
       inkscape:collect="always"
       xlink:href="#linearGradient3816-4"
       id="radialGradient4616"
       gradientUnits="userSpaceOnUse"
       gradientTransform="matrix(1,0,0,1.025641,0,-16.397547)"
       cx="-445.35715"
       cy="639.50507"
       fx="-445.35715"
       fy="639.50507"
       r="13.928572" />
    <linearGradient
       inkscape:collect="always"
       xlink:href="#linearGradient3920"
       id="linearGradient4618"
       gradientUnits="userSpaceOnUse"
       gradientTransform="translate(-95.000002,118.57143)"
       x1="211.72023"
       y1="711.74585"
       x2="234.57736"
       y2="708.17444" />
    <linearGradient
       inkscape:collect="always"
       xlink:href="#linearGradient4038"
       id="linearGradient4631"
       gradientUnits="userSpaceOnUse"
       gradientTransform="translate(517.14286,-7.14286)"
       x1="-365.71429"
       y1="558.79077"
       x2="-182.11823"
       y2="558.79077" />
    <radialGradient
       inkscape:collect="always"
       xlink:href="#linearGradient3816-4"
       id="radialGradient4643"
       gradientUnits="userSpaceOnUse"
       gradientTransform="matrix(1,0,0,1.025641,0,-16.397547)"
       cx="-445.35715"
       cy="639.50507"
       fx="-445.35715"
       fy="639.50507"
       r="13.928572" />
    <linearGradient
       inkscape:collect="always"
       xlink:href="#linearGradient3920"
       id="linearGradient4645"
       gradientUnits="userSpaceOnUse"
       gradientTransform="translate(-95.000002,118.57143)"
       x1="211.72023"
       y1="711.74585"
       x2="234.57736"
       y2="708.17444" />
    <linearGradient
       inkscape:collect="always"
       xlink:href="#linearGradient3920"
       id="linearGradient4648"
       gradientUnits="userSpaceOnUse"
       gradientTransform="translate(34.249818,0.92349)"
       x1="211.72023"
       y1="711.74585"
       x2="234.57736"
       y2="708.17444" />
    <linearGradient
       inkscape:collect="always"
       xlink:href="#linearGradient4658"
       id="linearGradient4664"
       x1="31.428562"
       y1="379.14789"
       x2="68.571426"
       y2="380.57645"
       gradientUnits="userSpaceOnUse"
       gradientTransform="translate(102.85715,80.000001)" />
    <radialGradient
       inkscape:collect="always"
       xlink:href="#linearGradient3816-4"
       id="radialGradient4672"
       gradientUnits="userSpaceOnUse"
       gradientTransform="matrix(1,0,0,1.025641,0,-16.397547)"
       cx="-445.35715"
       cy="639.50507"
       fx="-445.35715"
       fy="639.50507"
       r="13.928572" />
    <linearGradient
       inkscape:collect="always"
       xlink:href="#linearGradient3708"
       id="linearGradient3714"
       x1="-698.9624"
       y1="372.51477"
       x2="-698.9624"
       y2="407.12723"
       gradientUnits="userSpaceOnUse"
       gradientTransform="translate(855.09412,-31.819806)" />
    <linearGradient
       inkscape:collect="always"
       xlink:href="#linearGradient3878"
       id="linearGradient3884"
       x1="169.13492"
       y1="220.48306"
       x2="169.72435"
       y2="345.48306"
       gradientUnits="userSpaceOnUse" />
    <linearGradient
       inkscape:collect="always"
       xlink:href="#linearGradient3931"
       id="linearGradient3943"
       gradientUnits="userSpaceOnUse"
       x1="-367.5"
       y1="274.86218"
       x2="-367.5"
       y2="260.93362" />
    <linearGradient
       inkscape:collect="always"
       xlink:href="#linearGradient3947"
       id="linearGradient3953"
       x1="166.07144"
       y1="278.07648"
       x2="226.78572"
       y2="179.50504"
       gradientUnits="userSpaceOnUse" />
    <linearGradient
       inkscape:collect="always"
       xlink:href="#linearGradient3947-5"
       id="linearGradient3953-3"
       x1="166.07144"
       y1="278.07648"
       x2="226.78572"
       y2="179.50504"
       gradientUnits="userSpaceOnUse" />
    <linearGradient
       inkscape:collect="always"
       id="linearGradient3947-5">
      <stop
         style="stop-color:#6d6458;stop-opacity:1"
         offset="0"
         id="stop3949-3" />
      <stop
         style="stop-color:#686978;stop-opacity:1"
         offset="1"
         id="stop3951-4" />
    </linearGradient>
    <linearGradient
       inkscape:collect="always"
       xlink:href="#linearGradient4043"
       id="linearGradient4049"
       x1="160.39287"
       y1="162.45148"
       x2="159.78572"
       y2="219.05862"
       gradientUnits="userSpaceOnUse" />
    <linearGradient
       inkscape:collect="always"
       xlink:href="#linearGradient4043"
       id="linearGradient4079"
       x1="98.964287"
       y1="77.630035"
       x2="101.39286"
       y2="77.630035"
       gradientUnits="userSpaceOnUse"
       gradientTransform="translate(59.599,65.659916)" />
    <linearGradient
       inkscape:collect="always"
       xlink:href="#linearGradient4110"
       id="linearGradient4116"
       x1="174.18408"
       y1="135.50929"
       x2="230.95187"
       y2="177.29501"
       gradientUnits="userSpaceOnUse" />
    <filter
       inkscape:collect="always"
       id="filter4174"
       x="-0.23488265"
       width="1.4697653"
       y="-0.09179306"
       height="1.1835861"
       color-interpolation-filters="sRGB">
      <feGaussianBlur
         inkscape:collect="always"
         stdDeviation="0.29709818"
         id="feGaussianBlur4176" />
    </filter>
    <linearGradient
       inkscape:collect="always"
       xlink:href="#linearGradient4285"
       id="linearGradient4291"
       x1="-350.77548"
       y1="139.68936"
       x2="-346.22977"
       y2="139.68936"
       gradientUnits="userSpaceOnUse" />
  </defs>
  <sodipodi:namedview
     id="base"
     pagecolor="#ffffff"
     bordercolor="#666666"
     borderopacity="1.0"
     inkscape:pageopacity="0.0"
     inkscape:pageshadow="2"
     inkscape:zoom="1.1620361"
     inkscape:cx="164.32822"
     inkscape:cy="299.90463"
     inkscape:document-units="px"
     inkscape:current-layer="layer1"
     showgrid="false"
     inkscape:window-width="1440"
     inkscape:window-height="876"
     inkscape:window-x="0"
     inkscape:window-y="24"
     inkscape:window-maximized="1"
     inkscape:snap-nodes="false"
     fit-margin-top="0"
     fit-margin-left="0"
     fit-margin-right="0"
     fit-margin-bottom="0" />
  <metadata
     id="metadata7">
    <rdf:RDF>
      <cc:Work
         rdf:about="">
        <dc:format>image/svg+xml</dc:format>
        <dc:type
           rdf:resource="http://purl.org/dc/dcmitype/StillImage" />
        <dc:title></dc:title>
      </cc:Work>
    </rdf:RDF>
  </metadata>
  <g
     inkscape:label="Capa 1"
     inkscape:groupmode="layer"
     id="layer1"
     transform="translate(-8.7901891,-115.57646)">
    <path
       sodipodi:type="arc"
       style="fill:#9c886a;fill-opacity:1;stroke:none"
       id="path3991-6-4-3"
       sodipodi:cx="-282.05356"
       sodipodi:cy="175.13004"
       sodipodi:rx="5.4464288"
       sodipodi:ry="5.8035712"
       d="m -276.60713,175.13004 c 0,3.20522 -2.43845,5.80357 -5.44643,5.80357 -3.00798,0 -5.44643,-2.59835 -5.44643,-5.80357 0,-3.20523 2.43845,-5.80358 5.44643,-5.80358 3.00798,0 5.44643,2.59835 5.44643,5.80358 z"
       transform="translate(389.28197,56.329302)" />
    <path
       sodipodi:type="arc"
       style="fill:#6d6462;fill-opacity:1;stroke:none"
       id="path3991-6-46"
       sodipodi:cx="-282.05356"
       sodipodi:cy="175.13004"
       sodipodi:rx="5.4464288"
       sodipodi:ry="5.8035712"
       d="m -276.60713,175.13004 c 0,3.20522 -2.43845,5.80357 -5.44643,5.80357 -3.00798,0 -5.44643,-2.59835 -5.44643,-5.80357 0,-3.20523 2.43845,-5.80358 5.44643,-5.80358 3.00798,0 5.44643,2.59835 5.44643,5.80358 z"
       transform="translate(387.83392,56.329302)" />
    <g
       id="g4104"
       transform="translate(412.85715,150)">
      <path
         sodipodi:nodetypes="sssssss"
         inkscape:connector-curvature="0"
         id="path4083"
         d="m -328.75001,136.46932 c 0,3.64902 0.48273,-2.64562 0.0768,4.79034 -0.30148,5.52226 -20.27202,9.13823 -28.11249,9.13823 -7.84047,0 -28.55483,-3.233 -28.55893,-8.95966 -0.004,-5.82881 -0.0125,-0.78417 -0.0125,-4.43319 0,-7.29805 12.71191,-13.21429 28.39286,-13.21429 15.68094,0 28.21428,5.38052 28.21428,12.67857 z"
         style="fill:#6e5844;fill-opacity:1;stroke:none"
         transform="translate(105.35714,-158.21429)" />
      <path
         transform="translate(105.31142,-153.65749)"
         d="m -328.57144,137.00504 c 0,7.29804 -12.71191,13.21428 -28.39285,13.21428 -15.68095,0 -28.39286,-5.91624 -28.39286,-13.21428 0,-7.29805 12.71191,-13.21429 28.39286,-13.21429 15.68094,0 28.39285,5.91624 28.39285,13.21429 z"
         sodipodi:ry="13.214286"
         sodipodi:rx="28.392857"
         sodipodi:cy="137.00504"
         sodipodi:cx="-356.96429"
         id="path4083-3"
         style="fill:#49413a;fill-opacity:1;stroke:none"
         sodipodi:type="arc" />
    </g>
    <path
       style="fill:#5e5240;fill-opacity:1;stroke:none"
       d="m 158.98594,221.42382 8.21429,2.14286 0.71428,-57.85715 -7.14286,-3.92857 z"
       id="path4037"
       inkscape:connector-curvature="0" />
    <path
       sodipodi:type="arc"
       style="fill:#9c886a;fill-opacity:1;stroke:none"
       id="path3991-6-4"
       sodipodi:cx="-282.05356"
       sodipodi:cy="175.13004"
       sodipodi:rx="5.4464288"
       sodipodi:ry="5.8035712"
       d="m -276.60713,175.13004 c 0,3.20522 -2.43845,5.80357 -5.44643,5.80357 -3.00798,0 -5.44643,-2.59835 -5.44643,-5.80357 0,-3.20523 2.43845,-5.80358 5.44643,-5.80358 3.00798,0 5.44643,2.59835 5.44643,5.80358 z"
       transform="translate(517.72232,3.01882)" />
    <path
       style="fill:url(#linearGradient3884);fill-opacity:1;stroke:none"
       d="m 162.63456,345.50794 -7.07107,-10.10153 c 2.44986,-37.14337 6.27155,-74.69503 6.06092,-115.15739 2.94628,1.43105 3.43824,1.22589 8.83883,4.29315 3.62558,1.53233 6.4735,5.21849 8.08123,18.68782 2.92083,34.41483 -0.32393,65.30646 -1.76777,97.22719 l -5.91298,5.97425 z"
       id="path3108"
       inkscape:connector-curvature="0"
       sodipodi:nodetypes="cccccccc" />
    <path
       style="fill:#9f7d55;fill-opacity:1;stroke:none"
       d="m 155.18469,220.50156 5.98694,31.36703 0.93619,-31.4933 c -2.18866,-0.34588 -4.73447,-1.11917 -6.92313,0.12627 z"
       id="path3886"
       inkscape:connector-curvature="0"
       sodipodi:nodetypes="cccc" />
    <path
       style="fill:#7a5d4d;fill-opacity:1;stroke:none"
       d="m 164.90741,332.12342 2.0203,-73.74114 -1.01015,-25.25381 8.08122,4.04061 2.02031,17.67767 -2.02031,74.75129 z"
       id="path3888"
       inkscape:connector-curvature="0" />
    <g
       id="g4165"
       transform="translate(-395,-110)" />
    <path
       style="fill:url(#linearGradient4606);fill-opacity:1;stroke:none"
       d="m 48.305302,682.91376 -0.75761,3.03046 c 4.05961,2.22666 6.85682,1.92853 9.59645,1.51523 l 0,-3.03046 z"
       id="path3910"
       inkscape:connector-curvature="0"
       sodipodi:nodetypes="ccccc" />
    <path
       style="fill:#2a2e34;fill-opacity:1;stroke:none"
       d="m 41.73931,670.03432 -1.26269,9.59645 12.37437,5.3033 14.39467,0.25254 2.52539,-9.34391 -13.13199,-1.26269 z"
       id="path3906"
       inkscape:connector-curvature="0" />
    <path
       sodipodi:type="arc"
       style="fill:#2f2f32;fill-opacity:1;stroke:none"
       id="path2996-6-5"
       sodipodi:cx="-445"
       sodipodi:cy="638.07648"
       sodipodi:rx="43.57143"
       sodipodi:ry="48.57143"
       d="m -401.42857,638.07648 c 0,26.82526 -19.50759,48.57143 -43.57143,48.57143 -24.06384,0 -43.57143,-21.74617 -43.57143,-48.57143 0,-26.82526 19.50759,-48.57143 43.57143,-48.57143 24.06384,0 43.57143,21.74617 43.57143,48.57143 z"
       transform="matrix(1.2060394,0,0,0.99999995,606.6723,-9.1093466)" />
    <path
       sodipodi:type="arc"
       style="fill:url(#radialGradient4608);fill-opacity:1;stroke:none;filter:url(#filter3836)"
       id="path3814"
       sodipodi:cx="-445.35715"
       sodipodi:cy="639.50507"
       sodipodi:rx="13.928572"
       sodipodi:ry="14.285714"
       d="m -431.42858,639.50507 c 0,7.88978 -6.23603,14.28571 -13.92857,14.28571 -7.69253,0 -13.92857,-6.39593 -13.92857,-14.28571 0,-7.88979 6.23604,-14.28572 13.92857,-14.28572 7.69254,0 13.92857,6.39593 13.92857,14.28572 z"
       transform="matrix(1.1025641,0,0,1.075,566.04725,-48.381314)" />
    <path
       sodipodi:type="arc"
       style="fill:#857661;fill-opacity:1;stroke:none;filter:url(#filter3902)"
       id="path3840"
       sodipodi:cx="-450.35715"
       sodipodi:cy="609.86218"
       sodipodi:rx="8.9285717"
       sodipodi:ry="5.3571429"
       d="m -441.42858,609.86218 c 0,2.95867 -3.99745,5.35715 -8.92857,5.35715 -4.93111,0 -8.92857,-2.39848 -8.92857,-5.35715 0,-2.95867 3.99746,-5.35714 8.92857,-5.35714 4.93112,0 8.92857,2.39847 8.92857,5.35714 z"
       transform="matrix(0.76,0,0,1,408.34287,0.7142882)" />
    <path
       style="fill:#626872;fill-opacity:1;stroke:none"
       d="m 52.946434,676.38005 -0.848214,8.21053 0.625,0.27068 0.803572,0.0902 1.339285,-8.16542 z"
       id="path3908"
       inkscape:connector-curvature="0"
       sodipodi:nodetypes="cccccc" />
    <g
       id="g4114"
       transform="translate(362.85714,-61.42858)">
      <path
         sodipodi:nodetypes="ccccc"
         inkscape:connector-curvature="0"
         id="path3996"
         d="m -227.85715,742.71932 c 8.33333,4.26691 16.66667,4.17031 25,1.78572 l 1.42857,-78.21429 -25,-0.71429 z"
         style="fill:url(#linearGradient4610);fill-opacity:1;stroke:none" />
      <path
         sodipodi:nodetypes="ccccc"
         inkscape:connector-curvature="0"
         id="path4012"
         d="m -234.64286,635.93361 42.14286,1.07143 0,29.64286 c -13.75705,-1.63845 -27.79432,-2.15606 -42.5,0 z"
         style="fill:url(#linearGradient4612);fill-opacity:1;stroke:none" />
      <path
         sodipodi:nodetypes="ccc"
         inkscape:connector-curvature="0"
         id="path4034"
         d="m -235.08929,666.55861 42.41072,0.0893 c -13.59683,-1.65001 -27.62549,-2.00451 -42.41072,-0.0893 z"
         style="fill:#535f69;fill-opacity:1;stroke:none" />
    </g>
    <path
       style="fill:#293236;fill-opacity:1;stroke:none"
       d="m 241.29646,586.82731 c 30.25227,-11.7181 62.18775,-31.6357 95.13291,-55.4718 2.54027,-5.7364 0.85963,-12.0939 -11.23423,-5.8569 -29.8747,15.6001 -57.41541,42.1202 -88.44437,57.7931 z"
       id="path4087-5"
       inkscape:connector-curvature="0"
       sodipodi:nodetypes="ccccc" />
    <path
       style="fill:#756f6f;fill-opacity:1;stroke:none"
       d="m 238.09205,584.63011 c 30.25227,-11.7181 62.00918,-30.2071 94.95434,-54.0432 2.9377,-1.1192 2.64534,-10.3082 -9.44852,-4.0712 -29.8747,15.6001 -59.02255,38.9059 -90.05151,54.5788 z"
       id="path4087"
       inkscape:connector-curvature="0"
       sodipodi:nodetypes="ccccc" />
    <g
       id="g4259"
       transform="translate(102.85714,-28.57143)">
      <path
         inkscape:connector-curvature="0"
         id="path4219"
         d="M 70.714282,364.50504 83.571432,360.21932 136.42857,615.93361 125,617.36218 z"
         style="fill:#4c4d4e;fill-opacity:1;stroke:none" />
      <path
         inkscape:connector-curvature="0"
         id="path4221"
         d="m 126.42857,615.21932 -14.28571,-80.71428 5,0 15.71429,79.28571 z"
         style="fill:#95999c;fill-opacity:1;stroke:none;filter:url(#filter4255)" />
    </g>
    <path
       style="fill:#293236;fill-opacity:1;stroke:none"
       d="m 152.2408,597.69871 c 66.25582,-0.2335 115.18522,-27.3639 160.71429,-63.3981 12.29372,-10.2118 15.56619,-8.2197 21.51786,-7.3214 0.43794,-5.7143 -3.67893,-11.9643 -10.80357,-17.6786 -5.88285,1.1151 -10.92921,2.1687 -18.57143,10.7143 -60.84125,47.1396 -111.05765,66.6546 -152.85715,64.2857 z"
       id="path4036-2"
       inkscape:connector-curvature="0"
       sodipodi:nodetypes="ccccccc" />
    <path
       style="fill:url(#linearGradient4631);fill-opacity:1;stroke:none"
       d="m 151.42857,597.36221 c 66.25582,-0.2335 115.18522,-30.3944 160.71429,-66.4286 12.29372,-10.2118 19.04832,-6.4339 24.99999,-5.5356 0.43794,-5.7143 -9.07676,-16.8545 -13.92856,-19.2858 -4.36762,-0.14759 -11.28635,1.9901 -18.92857,10.5357 -60.84125,47.1396 -111.05765,66.6546 -152.85715,64.2857 z"
       id="path4036"
       inkscape:connector-curvature="0"
       sodipodi:nodetypes="ccccccc" />
    <path
       style="fill:#9b9f9d;fill-opacity:1;stroke:none"
       d="m 313.30357,509.14791 10.26786,15.1786 2.32143,-0.4465 -10.35714,-15.9821 z"
       id="path4048"
       inkscape:connector-curvature="0"
       sodipodi:nodetypes="ccccc" />
    <path
       transform="matrix(1.3371869,0,0,1.1470588,836.07303,-93.21096)"
       d="m -401.42857,638.07648 c 0,26.82526 -19.50759,48.57143 -43.57143,48.57143 -24.06384,0 -43.57143,-21.74617 -43.57143,-48.57143 0,-26.82526 19.50759,-48.57143 43.57143,-48.57143 24.06384,0 43.57143,21.74617 43.57143,48.57143 z"
       sodipodi:ry="48.57143"
       sodipodi:rx="43.57143"
       sodipodi:cy="638.07648"
       sodipodi:cx="-445"
       id="path2996-6"
       style="fill:#2f2f32;fill-opacity:1;stroke:none"
       sodipodi:type="arc" />
    <path
       transform="matrix(1.2430895,0,0,1.2120123,805.06681,-125.37755)"
       d="m -431.42858,639.50507 c 0,7.88978 -6.23603,14.28571 -13.92857,14.28571 -7.69253,0 -13.92857,-6.39593 -13.92857,-14.28571 0,-7.88979 6.23604,-14.28572 13.92857,-14.28572 7.69254,0 13.92857,6.39593 13.92857,14.28572 z"
       sodipodi:ry="14.285714"
       sodipodi:rx="13.928572"
       sodipodi:cy="639.50507"
       sodipodi:cx="-445.35715"
       id="path3814-5"
       style="fill:url(#radialGradient4672);fill-opacity:1;stroke:none;filter:url(#filter3836-5)"
       sodipodi:type="arc" />
    <path
       transform="matrix(0.76,0,0,1,579.77368,9.19524)"
       d="m -441.42858,609.86218 c 0,2.95867 -3.99745,5.35715 -8.92857,5.35715 -4.93111,0 -8.92857,-2.39848 -8.92857,-5.35715 0,-2.95867 3.99746,-5.35714 8.92857,-5.35714 4.93112,0 8.92857,2.39847 8.92857,5.35714 z"
       sodipodi:ry="5.3571429"
       sodipodi:rx="8.9285717"
       sodipodi:cy="609.86218"
       sodipodi:cx="-450.35715"
       id="path3840-0"
       style="fill:#857661;fill-opacity:1;stroke:none;filter:url(#filter3902-3)"
       sodipodi:type="arc" />
    <path
       sodipodi:nodetypes="ccccccc"
       inkscape:connector-curvature="0"
       id="path3978"
       d="m 240.36428,693.8552 1.45395,11.38959 12.68818,-5.48713 16.10117,1.19399 -1.3673,-14.30802 -17.33322,1.08674 z"
       style="fill:#2a2e34;fill-opacity:1;stroke:none" />
    <path
       sodipodi:nodetypes="ccccccc"
       inkscape:connector-curvature="0"
       id="path3980"
       d="m 250.41054,688.55353 1.16071,-0.89286 2.32142,0.17856 1.87501,11.875 -1.33929,-0.0893 -1.42857,0.625 z"
       style="fill:#626872;fill-opacity:1;stroke:none" />
    <path
       sodipodi:nodetypes="ccccccc"
       inkscape:connector-curvature="0"
       id="path3982"
       d="m 262.67428,710.43297 6.91788,-4.533 0.8062,-5.49456 -16.4583,-1.22462 -11.89994,5.96157 3.20903,2.76523 z"
       style="fill:#4a5456;fill-opacity:1;stroke:none" />
    <path
       sodipodi:nodetypes="ccccc"
       inkscape:connector-curvature="0"
       id="path3984"
       d="m 248.82718,705.76464 c 5.59524,-2.42789 11.19047,-2.96847 16.78571,-3.03572 l 1.07143,10.17857 c -4.51744,2.10936 -8.75757,3.18616 -15.17857,1.96429 z"
       style="fill:url(#linearGradient4648);fill-opacity:1;stroke:none" />
    <path
       style="fill:#3d4344;fill-opacity:1;stroke:none"
       d="m 219.82143,567.71931 5.35714,15.89286 -3.21429,1.07143 -4.82142,-15.53571 z"
       id="path4297"
       inkscape:connector-curvature="0" />
    <g
       id="g4476"
       transform="translate(852.85714,-28.571429)">
      <path
         sodipodi:nodetypes="cccccc"
         inkscape:connector-curvature="0"
         id="path4354-1"
         d="m -769.43354,600.03335 11.67323,2.31509 -0.64821,-2.50634 c -19.62718,-8.77352 -53.52389,-29.9212 -68.44309,-44.74784 -4.07574,-1.83803 -11.39939,-2.40663 -12.31836,2.06889 18.05503,17.42803 47.64113,33.52272 69.73643,42.8702 z"
         style="fill:#4e4038;fill-opacity:1;stroke:none" />
      <path
         sodipodi:nodetypes="ccccc"
         inkscape:connector-curvature="0"
         id="path4354"
         d="m -770.49385,601.32906 9.59645,-1.26268 c -19.62718,-8.77352 -50.48818,-27.59977 -65.40738,-42.42641 -4.07574,-1.83803 -9.4351,-4.72806 -10.35407,-0.25254 18.05503,17.42803 44.0697,34.59415 66.165,43.94163 z"
         style="fill:#48484c;fill-opacity:1;stroke:none" />
      <path
         sodipodi:nodetypes="ccccc"
         inkscape:connector-curvature="0"
         id="path4452"
         d="m -777.31789,597.79547 15.29365,2.85714 58.19604,-232.14285 -12.4972,-6.42857 z"
         style="fill:url(#linearGradient4518);fill-opacity:1;stroke:none" />
      <path
         sodipodi:nodetypes="ccsccccccccccc"
         inkscape:connector-curvature="0"
         id="path4316-9"
         d="m -723.76061,623.80872 c -11.78429,-1.44673 -23.33893,-2.57195 -38.3858,-8.58629 0.13907,-0.13907 -7.58998,-0.74378 -9.09137,-0.50508 -1.02832,0.16349 -6.06091,-2.0203 -6.06091,-2.0203 -28.16469,-9.4284 -46.35957,-28.0597 -66.165,-45.20433 -1.09844,-1.51318 -0.17325,-2.58607 0.63135,-5.05077 1.09433,-2.84688 1.93613,-3.84846 3.03046,-4.79822 0.73371,-0.7389 1.87936,-1.01302 2.77791,-1.01015 19.57142,16.93456 40.78808,28.39124 62.25066,42.17387 l 6.56599,1.76777 4.54569,-0.50508 c 3.24183,0.29371 6.1769,0.89416 8.08122,2.52538 14.38039,4.9523 23.44972,4.59354 32.57742,4.29315 z"
         style="fill:#4e4038;fill-opacity:1;stroke:none" />
      <path
         sodipodi:nodetypes="ccsccccccccccc"
         inkscape:connector-curvature="0"
         id="path4316"
         d="m -723.52176,626.0778 c -11.78429,-1.44673 -23.33893,-2.57195 -38.3858,-8.58629 0.13907,-0.13907 -7.58998,-0.74378 -9.09137,-0.50508 -1.02832,0.16349 -6.06091,-2.0203 -6.06091,-2.0203 -28.16469,-9.4284 -46.35957,-28.0597 -66.165,-45.20433 -1.09844,-1.51318 -1.05713,-3.59622 -0.25253,-6.06092 1.09433,-2.84688 2.01009,-4.71068 3.10442,-5.66044 0.73371,-0.7389 1.09111,-1.83191 1.98966,-1.82904 19.57142,16.93456 42.38625,31.0825 63.84883,44.86513 l 6.56599,1.76777 4.54569,-0.50508 c 3.24183,0.29371 6.1769,0.89416 8.08122,2.52538 14.38039,4.9523 23.44972,4.59354 32.57742,4.29315 z"
         style="fill:#363a3b;fill-opacity:1;stroke:none" />
      <path
         sodipodi:nodetypes="ccccc"
         inkscape:connector-curvature="0"
         id="path4318"
         d="m -769.55767,602.81367 c 4.23481,-0.0697 5.76349,-0.13947 7.72408,-0.20921 l -2.0203,14.35135 -7.90265,-0.29588 z"
         style="fill:#7a8384;fill-opacity:1;stroke:none;filter:url(#filter4332)" />
      <path
         transform="matrix(0.97967284,0.2006019,-0.2006019,0.97967284,-191.72618,-204.0472)"
         inkscape:connector-curvature="0"
         id="path4356"
         d="m -476.28693,872.17622 c 0,0.75762 -0.12626,4.16688 -0.12626,4.16688 l 1.76776,1.51523 0.37881,-5.3033 z"
         style="fill:#96908d;fill-opacity:1;stroke:none;filter:url(#filter4430)" />
    </g>
    <path
       style="fill:url(#linearGradient4664);fill-opacity:1;stroke:none"
       d="m 137.14286,575.57646 26.07144,0.71429 8.21428,-231.07143 -26.42857,-0.71429 z"
       id="path4656"
       inkscape:connector-curvature="0"
       sodipodi:nodetypes="ccccc" />
    <path
       style="fill:url(#linearGradient3714);fill-opacity:1;stroke:none"
       d="m 150.38645,375.30744 -0.12627,-30.68338 c 0.71513,-2.8647 2.44386,-6.26998 5.68211,-10.48034 1.99822,2.75522 4.12235,4.44018 5.80838,9.84899 l 0.25253,31.31473 -11.61675,0 z"
       id="path2934"
       sodipodi:nodetypes="cccccc"
       inkscape:connector-curvature="0" />
    <path
       style="fill:#2f2323;fill-opacity:1;stroke:none"
       d="M 141.36443,257.67481 C 131.056,247.45082 118.06417,237.00321 99.695648,226.10754 l -4.04062,6.31345 c 11.529252,10.8884 22.697232,19.14016 29.294422,29.7995 l 15.9099,13.38452 z"
       id="path4178-4"
       inkscape:connector-curvature="0"
       sodipodi:nodetypes="cccccc" />
    <path
       style="fill:#56463e;fill-opacity:1;stroke:none"
       d="M 140.33506,258.9053 C 130.02663,248.68131 117.0348,238.2337 98.666271,227.33803 l -4.04062,6.31345 c 11.529259,10.8884 22.697239,19.14016 29.294429,29.7995 l 15.9099,13.38452 z"
       id="path4178"
       inkscape:connector-curvature="0"
       sodipodi:nodetypes="cccccc" />
    <path
       style="fill:#9e8272;fill-opacity:1;stroke:none"
       d="m 144.06929,371.98855 6.94852,0.0613 -1.01016,-25.75889 c 1.10176,-4.99754 2.56649,-9.45061 5.55584,-11.61676 l 5.80838,-84.34773 -5.93465,-30.12973 -11.66905,4.1542 -5.37727,19.91461 -2.02031,91.41881 c 0.68121,1.10599 5.13741,6.08875 7.6987,10.01486 l 0,26.28935 z"
       id="path3716"
       sodipodi:nodetypes="cccccccccccc"
       inkscape:connector-curvature="0" />
    <path
       style="fill:#4c413b;fill-opacity:1;stroke:none"
       d="m 166.04768,276.76729 19.56056,46.41101 -2.0203,6.06092 1.01015,3.03045 -7.57614,3.03046 -2.02031,-4.54569 -7.64267,-11.12961 z"
       id="path3890-4"
       inkscape:connector-curvature="0"
       sodipodi:nodetypes="cccccccc" />
    <path
       style="fill:#96886e;fill-opacity:1;stroke:none"
       d="m 165.50657,279.65149 17.54025,44.3907 -2.0203,6.06092 1.01015,3.03045 -7.57614,3.03046 -2.02031,-4.54569 -7.64267,-11.12961 z"
       id="path3890"
       inkscape:connector-curvature="0"
       sodipodi:nodetypes="cccccccc" />
    <g
       id="g3939"
       transform="translate(1180.8793,20.505076)">
      <path
         transform="translate(-660.90217,-19.71074)"
         d="m -363.21429,267.71933 c 0,4.33938 -2.79822,7.85714 -6.25,7.85714 -3.45178,0 -6.25,-3.51776 -6.25,-7.85714 0,-4.33938 2.79822,-7.85714 6.25,-7.85714 3.45178,0 6.25,3.51776 6.25,7.85714 z"
         sodipodi:ry="7.8571429"
         sodipodi:rx="6.25"
         sodipodi:cy="267.71933"
         sodipodi:cx="-369.46429"
         id="path3911-4"
         style="fill:url(#linearGradient3943);fill-opacity:1;stroke:none"
         sodipodi:type="arc" />
      <path
         inkscape:transform-center-x="6.25"
         transform="translate(-662.62255,-20)"
         d="m -363.21429,267.71933 c 0,4.33938 -2.79822,7.85714 -6.25,7.85714 -3.45178,0 -6.25,-3.51776 -6.25,-7.85714 0,-4.33938 2.79822,-7.85714 6.25,-7.85714 3.45178,0 6.25,3.51776 6.25,7.85714 z"
         sodipodi:ry="7.8571429"
         sodipodi:rx="6.25"
         sodipodi:cy="267.71933"
         sodipodi:cx="-369.46429"
         id="path3911"
         style="fill:#695951;fill-opacity:1;stroke:none"
         sodipodi:type="arc" />
    </g>
    <path
       style="fill:#625847;fill-opacity:1;stroke:none"
       d="m 165.01821,290.17418 18.57143,-26.60714 11.78571,-16.07143 8.21429,-19.64285 32.49999,-47.67858 -0.89285,-1.33929 -39.82143,46.87501 -5,12.14286 -12.14285,17.5 -13.57143,31.60714 z"
       id="path3945-0"
       inkscape:connector-curvature="0"
       sodipodi:nodetypes="ccccccccccc" />
    <path
       style="fill:url(#linearGradient3953);fill-opacity:1;stroke:none"
       d="m 164.64286,287.00504 17.5,-26.07143 11.78571,-16.07143 8.21429,-19.64285 33.21428,-46.42858 -5.35714,-2.5 -36.07143,46.78572 -5,12.14286 -12.14285,17.5 -10,7.5 z"
       id="path3945"
       inkscape:connector-curvature="0"
       sodipodi:nodetypes="ccccccccccc" />
    <path
       style="fill:none;stroke:#99918b;stroke-width:1px;stroke-linecap:butt;stroke-linejoin:miter;stroke-opacity:1"
       d="m 164.55357,287.27289 29.55357,-42.05357 8.03572,-19.46429 33.30357,-46.69643"
       id="path3989"
       inkscape:connector-curvature="0" />
    <path
       sodipodi:type="arc"
       style="fill:#6d6462;fill-opacity:1;stroke:none"
       id="path3991-6"
       sodipodi:cx="-282.05356"
       sodipodi:cy="175.13004"
       sodipodi:rx="5.4464288"
       sodipodi:ry="5.8035712"
       d="m -276.60713,175.13004 c 0,3.20522 -2.43845,5.80357 -5.44643,5.80357 -3.00798,0 -5.44643,-2.59835 -5.44643,-5.80357 0,-3.20523 2.43845,-5.80358 5.44643,-5.80358 3.00798,0 5.44643,2.59835 5.44643,5.80358 z"
       transform="translate(516.27427,3.01882)" />
    <path
       style="fill:#625643;fill-opacity:1;stroke:none"
       d="m 149.96433,222.26933 9.26994,-2.05094 1.08412,-58.20107 -7.90265,4.41044 z"
       id="path4039"
       inkscape:connector-curvature="0"
       sodipodi:nodetypes="ccccc" />
    <path
       style="fill:none;stroke:url(#linearGradient4049);stroke-width:1px;stroke-linecap:butt;stroke-linejoin:miter;stroke-opacity:1"
       d="m 159.10714,219.86218 1.25,-57.67857"
       id="path4041"
       inkscape:connector-curvature="0" />
    <path
       style="fill:#483b38;fill-opacity:1;stroke:none"
       d="m 152.36686,167.12924 7.58929,-4.64286 7.94643,4.28571 4.64285,-1.24999 -13.83928,-34.46429 -10.44643,34.91072 z"
       id="path4051"
       inkscape:connector-curvature="0"
       sodipodi:nodetypes="ccccccc" />
    <path
       style="fill:none;stroke:#5e574a;stroke-width:1px;stroke-linecap:butt;stroke-linejoin:miter;stroke-opacity:1"
       d="m 160.43569,159.09781 -0.0663,3.85438"
       id="path4081"
       inkscape:connector-curvature="0"
       sodipodi:nodetypes="cc" />
    <path
       style="fill:url(#linearGradient4116);fill-opacity:1;stroke:none"
       d="m 171.6841,131.68687 5.71428,3.21428 c 2.09003,0.29092 3.9813,0.78061 5.71429,1.42857 17.39728,5.63926 32.22163,21.7612 43.03046,30.22408 l 7.30874,8.13506 -3.57143,5.35715 -8.55349,-8.77013 c -17.55774,-8.87826 -39.06517,-23.65583 -42.85714,-28.87473 -2.01154,-0.76681 -3.16877,-1.87535 -4.64286,-2.85714 l -5.35714,-2.5 z"
       id="path4108"
       inkscape:connector-curvature="0"
       sodipodi:nodetypes="ccccccccccc" />
    <path
       sodipodi:type="arc"
       style="fill:#837765;fill-opacity:1;stroke:none"
       id="path3991"
       sodipodi:cx="-282.05356"
       sodipodi:cy="175.13004"
       sodipodi:rx="5.4464288"
       sodipodi:ry="5.8035712"
       d="m -276.60713,175.13004 c 0,3.20522 -2.43845,5.80357 -5.44643,5.80357 -3.00798,0 -5.44643,-2.59835 -5.44643,-5.80357 0,-3.20523 2.43845,-5.80358 5.44643,-5.80358 3.00798,0 5.44643,2.59835 5.44643,5.80358 z"
       transform="translate(511.78572,3.01882)" />
    <path
       style="fill:#fefefb;fill-opacity:1;stroke:none;filter:url(#filter4174)"
       d="m 177.32143,135.04075 -0.625,6.33928 2.14286,1.42858 0.89285,-7.5 z"
       id="path4124"
       inkscape:connector-curvature="0" />
    <path
       style="fill:#4f4742;fill-opacity:1;stroke:none"
       d="m 96.428578,235.21933 7.857142,-10.35715 5,-1.78571 37.12119,-73.12147 -1.07143,-2.85714 10.35714,-13.21429 2.85715,9.64286 -4.28572,7.5 -5,0.35714 -37.12119,72.40719 0,4.28571 -2.58928,4.46428 -1.51786,-0.98214 1.25,-2.76785 -3.92857,-1.78572 -6.071432,8.21429 z"
       id="path4198"
       inkscape:connector-curvature="0"
       sodipodi:nodetypes="ccccccccccccccccc" />
    <path
       style="fill:#555150;fill-opacity:1;stroke:none"
       d="m 96.964279,235.3979 7.857151,-10.71429 4.64286,-1.42857 37.47833,-72.40718 -0.35714,-3.57143 9.46428,-13.21429 -4.46429,0 -8.21428,10 -0.35714,3.92858 -36.40691,71.33575 -3.92857,1.78571 -7.14286,11.42857 z"
       id="path4200"
       inkscape:connector-curvature="0"
       sodipodi:nodetypes="ccccccccccccc" />
    <path
       style="fill:none;stroke:#bcb7b3;stroke-width:1px;stroke-linecap:butt;stroke-linejoin:miter;stroke-opacity:1"
       d="m 96.607144,235.21933 8.035716,-10.71429 5,-1.42857 37.12119,-71.87147 -0.17857,-4.10715 9.10714,-12.67857"
       id="path4202"
       inkscape:connector-curvature="0"
       sodipodi:nodetypes="cccccc" />
    <path
       style="fill:#655a49;fill-opacity:1;stroke:none"
       d="m 148.41024,165.98603 11.96429,-7.14286 12.32143,6.78571 0.53571,-34.64285 -12.76785,-3.48214 -11.51786,7.23214 z"
       id="path4051-7"
       inkscape:connector-curvature="0"
       sodipodi:nodetypes="ccccccc" />
    <path
       style="fill:none;stroke:url(#linearGradient4079);stroke-width:1px;stroke-linecap:butt;stroke-linejoin:miter;stroke-opacity:1"
       d="m 160.58115,128.02209 -0.0893,31.07143"
       id="path4071"
       inkscape:connector-curvature="0"
       sodipodi:nodetypes="cc" />
    <path
       sodipodi:type="arc"
       style="fill:#837765;fill-opacity:1;stroke:none"
       id="path3991-0"
       sodipodi:cx="-282.05356"
       sodipodi:cy="175.13004"
       sodipodi:rx="5.4464288"
       sodipodi:ry="5.8035712"
       d="m -276.60713,175.13004 c 0,3.20522 -2.43845,5.80357 -5.44643,5.80357 -3.00798,0 -5.44643,-2.59835 -5.44643,-5.80357 0,-3.20523 2.43845,-5.80358 5.44643,-5.80358 3.00798,0 5.44643,2.59835 5.44643,5.80358 z"
       transform="translate(380.96812,56.69411)" />
    <path
       sodipodi:type="arc"
       style="fill:#4e4746;fill-opacity:1;stroke:none"
       id="path4281"
       sodipodi:cx="-348.88144"
       sodipodi:cy="139.68936"
       sodipodi:rx="5.177032"
       sodipodi:ry="4.7982244"
       d="m -343.70441,139.68936 c 0,2.64999 -2.31783,4.79823 -5.17703,4.79823 -2.8592,0 -5.17703,-2.14824 -5.17703,-4.79823 0,-2.64998 2.31783,-4.79822 5.17703,-4.79822 2.79906,0 5.09123,2.06199 5.17473,4.65509"
       sodipodi:start="0"
       sodipodi:end="6.2533505"
       sodipodi:open="true"
       transform="translate(517.26796,-4.9566716)" />
    <path
       sodipodi:type="arc"
       style="fill:url(#linearGradient4291);fill-opacity:1;stroke:none"
       id="path4283"
       sodipodi:cx="-348.50262"
       sodipodi:cy="139.68936"
       sodipodi:rx="2.2728431"
       sodipodi:ry="2.0203052"
       d="m -346.22978,139.68936 c 0,1.11579 -1.01759,2.02031 -2.27284,2.02031 -1.25526,0 -2.27285,-0.90452 -2.27285,-2.02031 0,-1.11578 1.01759,-2.0203 2.27285,-2.0203 1.22885,0 2.23517,0.8682 2.27183,1.96004"
       sodipodi:start="0"
       sodipodi:end="6.2533505"
       sodipodi:open="true"
       transform="translate(516.76289,-4.9566716)" />
  </g>
</svg>
